<?xml version="1.0" encoding="UTF-8"?>
<svg id="Capa_1" data-name="Capa 1" xmlns="http://www.w3.org/2000/svg" viewBox="0 0 227.88 320.13">
  <defs>
    <style>
      .cls-1 {
        fill: #fff;
      }
    </style>
  </defs>
  <path class="cls-1" d="m90.36,150.45c26.16,0,52.31,0,78.47,0,4.8,0,9.41.19,11.38,5.88.78,2.26,3.11,1.43,4.83,1.6,9.04.89,17.71,2.89,25.45,7.93,11.76,7.67,16.81,19.01,17.35,32.54.97,24.07-15.06,50.43-37.32,59.56-7.39,3.03-11.48,6.63-13.78,14.38-3.08,10.36-10.59,17.97-19.93,23.44-2.53,1.48-3.25,2.77-2.78,5.82,1.54,10.01-5.33,18.31-15.52,18.38-31.99.2-63.98.2-95.96,0-10.4-.06-16.96-8.26-15.57-18.83.33-2.5-.04-3.81-2.29-5.14C8.17,286.23.38,271.22.18,252.46c-.33-30.48-.11-60.98-.07-91.46,0-7.36,3.21-10.5,10.79-10.52,26.49-.05,52.98-.02,79.47-.02Zm90.47,58.43c0,7.49-.02,14.97.02,22.46,0,1.12-.11,2.75.52,3.25,1.22.94,2.48-.39,3.5-1.09,9.34-6.46,14.85-15.51,17.41-26.41,3.48-14.81-2.73-23.18-17.72-24.48-2.85-.25-3.84.38-3.78,3.33.15,7.65.05,15.3.05,22.95Z"/>
  <path class="cls-1" d="m127.99,60.03c-16.49,0-32.98.22-49.47-.06-14.98-.26-29.96-1.07-44.37-5.81-2.67-.88-5.31-1.97-7.78-3.3-12.79-6.89-15.79-17.52-8.37-30.09,6.4-10.84,16.87-15.83,28.55-18.31,18.52-3.93,37.05-2.86,55.45,1.21,2.6.57,5.18,1.21,7.74,1.92,1.05.29,2.56.35,2.43,1.98-.17,2-1.85,1.58-3.08,1.53-9.49-.35-18.99-.45-28.48-.02-12.04.55-23.81,2.46-35.1,6.86-4.9,1.91-9.2,4.68-12.41,8.91-5.18,6.83-3.88,10.72,4.38,12.87,8.09,2.1,16.36,3.08,24.7,3.13,25.49.13,50.98.05,76.47.15,6.02.03,11.96,1.09,17.51,3.48,5.98,2.58,10.46,6.67,10.73,13.73.27,6.94-3.95,11.07-9.57,13.97-8.1,4.19-17.04,5.45-25.89,6.94-14.74,2.49-29.71,3.71-44.07,8.2-2.54.8-4.99,1.84-7.1,3.55-.92.75-1.97,1.64-1.67,2.86.33,1.36,1.53,2.12,2.98,2.29,4.14.49,8.26.99,12.45.75,5.17-.3,10.35-.12,15.43.86,5.7,1.1,10.54,3.8,12.25,9.7,1.65,5.68-1.38,10.12-5.5,13.56-5.23,4.37-10.81,8.32-16.22,12.48-3.03,2.33-6.22,4.5-7.56,8.38-.32.94-.91,2.11-2.04,1.82-1.31-.34-1.44-1.69-1.34-2.91.3-3.67,2.04-6.71,4.54-9.22,4.69-4.72,9.64-9.19,14.33-13.91,1.92-1.94,5.04-4.04,3.7-7.03-1.4-3.12-5.13-2.57-8.06-2.36-6.46.48-12.79,2.21-19.32,2.18-5.97-.03-11.59-1.02-16.07-5.46-6.73-6.66-7.11-16.77-.86-23.89,5.75-6.55,13.49-9.49,21.54-11.86,12.91-3.79,26.25-5.59,39.14-9.06Z"/>
</svg>