<?xml version="1.0" encoding="UTF-8"?>
<svg id="Capa_1" data-name="Capa 1" xmlns="http://www.w3.org/2000/svg" viewBox="0 0 57.61 57.48">
  <defs>
    <style>
      .cls-1 {
        fill: #fbc56d;
      }

      .cls-2 {
        fill: #eab765;
      }

      .cls-3 {
        fill: #fccd7f;
      }

      .cls-4 {
        fill: #d9ab5e;
      }

      .cls-5 {
        fill: #d8aa5e;
      }
    </style>
  </defs>
  <path d="m56.03,28.38c.69.02.99.35,1.16,1.07.41,1.75.47,3.51.4,5.29-.12,3.01-1.2,5.52-3.91,7.11-.44.26-.51.63-.6,1.07-.58,2.73-1.25,5.55-3.54,7.32-2.45,1.89-4.27,4.46-6.91,6.09-1.02.63-2.07,1.14-3.35,1.16-1.49.03-2.39-.71-3.07-1.88-1.07-1.84-1.4-3.88-1.57-5.95-.05-.63-.03-1.28,0-1.91.07-1.34-.08-2.52-1.02-3.69-.88-1.09-1.38-2.51-1.05-4.05.09-.4-.22-.79-.56-1.01-1.37-.89-1.99-2.29-2.51-3.73-.15-.43-.27-.63-.74-.79-2.72-.95-4.61-2.76-5.46-5.56-.19-.63-.47-.87-1.19-1-1.34-.23-2.45-1.03-3.3-2.12-.38-.48-.78-.86-1.49-.76-1.6.22-2.93-.53-4.19-1.37-.67-.45-1.32-.69-2.14-.66-2.74.11-5.43-.2-8.02-1.13-1.38-.49-2.45-1.32-2.86-2.85-.35-1.29.14-2.42.7-3.42,1.07-1.89,2.39-3.61,4.16-4.93.85-.63,1.3-1.58,1.95-2.37,1.85-2.25,4.45-3.1,7.14-3.72.9-.2,1.47-.56,2.02-1.34C17.59,1.09,19.8.19,22.38.04c4.57-.26,8.89.65,12.95,2.73.59.3.98-.03,1.44-.06,3.33-.23,6.21.94,8.82,2.82,3.61,2.6,6.52,5.83,8.34,9.94.81,1.82,1.31,3.72.76,5.74-.25.91.44,1.58.71,2.34.19.54.39,1.1.65,1.61.31.61.14,1.03-.3,1.45-.65.12-1.04-.16-1.27-.76-.24-.64-.52-1.26-.76-1.85-.68.73-1.34,1.44-2,2.15-2.09,1.93-4.39,3.57-6.86,4.97-3.95,2.24-8.1,3.88-12.71,4.03-.89.03-.8.44-.49.96,1.01,1.71,2.67,2.62,4.41,3.31,4.52,1.79,9.2,2.5,14.04,1.81,1.45-.21,2.84-.64,3.89-1.77,1.8-2.02,2.22-4.41,1.89-7.01-.13-1.05-.22-2.11-.34-3.16-.04-.4.04-.74.45-.91Zm-7.19,20.11c1.29-1.22,1.83-2.81,2.24-4.48.09-.38.47-.83.09-1.11-.34-.26-.85-.12-1.22.19-1.61-.25-3.21.14-4.85.03-3.8-.24-7.36-1.17-10.86-2.63-.24,1.22.39,2.22,1.06,3.03,2.65,3.22,5.88,5.62,10.05,6.56,1.12.25,2.9-.53,3.5-1.6ZM14.56,7.48c.25-1.21.24-1.25-.32-1.15-1.94.34-3.79.92-5.3,2.26-1.58,1.33-1.88,3.01-1.24,4.89.93,2.75,2.54,5.12,4.51,7.21,1.13,1.21,2.46,2.22,4.14,2.64.22.06.43.2.61.02.21-.21-.05-.42-.12-.6-.24-.61-.63-1.18-.78-1.8-.14-.58-.48-1.38.58-1.59.49-.04.73.28.89.66.25.6.44,1.23.71,1.82.78,1.67,1.68,3.24,3.45,4.1,1.13.54,1.28.5,1.24-.68-.04-1.23,0-2.46.28-3.64,1-4.2,2.74-8.1,5.05-11.76.92-1.46,2.11-2.71,3.01-4.17.74-.63,1.49-1.26,2.31-1.96-3.66-1.55-7.32-2.32-11.13-2.07-1.67.11-3.36.51-4.49,1.98-.65.39-.89,1.05-1.09,1.71-1.09,3.46-.82,6.98-.31,10.48.11.75.16,1.38-.59,1.81-.8-.03-1.06-.63-1.11-1.24-.16-2.1-.52-4.17-.5-6.29,0-.89.45-1.73.21-2.63Zm18.69-1.14c-2.33,2.11-3.9,4.76-5.37,7.49-1.75,3.25-2.94,6.71-3.35,10.38-.22,2.02-.08,4.12,1.1,5.86,2.05,3.03,5.23,3.67,8.53,3.23,3.43-.45,6.63-1.77,9.65-3.51,2.72-1.58,5.3-3.34,7.48-5.62,2.29-2.71,2.48-4.72,1.07-7.99-1.26-2.91-3.2-5.34-5.56-7.47-2-1.81-4.15-3.32-6.77-4.02-2.55-.68-4.89-.38-6.78,1.66Zm2.94,40.7c.09,2.64.25,5.07,1.2,7.36.55,1.33,1.64,1.79,2.94,1.2,1.89-.85,3.48-2.13,4.87-3.71-3.35-.92-6.26-2.46-9.01-4.86ZM5.72,12.27c-1.74,1.54-3.2,3.08-3.86,5.16-.3.94-.25,1.85.89,2.43,2.36,1.2,4.86,1.45,7.49,1.32-2.76-3.61-4.12-6.25-4.52-8.91Z"/>
  <path class="cls-1" d="m51.73,26.16c.66-.71,1.32-1.42,2-2.15.24.59.52,1.21.76,1.85.23.61.62.89,1.27.76.09.59.18,1.18.27,1.76-.41.17-.5.51-.45.91.11,1.05.2,2.11.34,3.16.33,2.6-.09,4.99-1.89,7.01-.3-.22-.22-.51-.18-.81.58-4.38-.24-8.52-2.11-12.49Z"/>
  <path class="cls-2" d="m51.31,24.16c-2.18,2.29-4.76,4.04-7.48,5.62-3.02,1.75-6.22,3.06-9.65,3.51-3.3.43-6.49-.2-8.53-3.23-1.17-1.74-1.32-3.83-1.1-5.86.4-3.67,1.6-7.13,3.35-10.38,1.47-2.72,3.04-5.38,5.37-7.49,1.6-.36,3.18-.31,4.75.2,3.3,1.08,5.87,3.21,8.23,5.66,3.22,3.34,5.56,7.05,5.07,11.96Z"/>
  <path class="cls-3" d="m31.27,5.69c-.9,1.46-2.09,2.71-3.01,4.17-2.31,3.66-4.04,7.55-5.05,11.76-.28,1.18-.32,2.42-.28,3.64.04,1.18-.11,1.22-1.24.68-1.77-.85-2.67-2.43-3.45-4.1-.28-.59-.47-1.22-.71-1.82-.16-.39-.39-.71-.89-.66-.33-.53-.53-1.11-.67-1.71.75-.42.7-1.06.59-1.81-.52-3.51-.78-7.02.31-10.48.21-.66.44-1.32,1.09-1.71.19,0,.38.02.56,0,4.47-.67,8.7.16,12.75,2.06Z"/>
  <path class="cls-3" d="m51.73,26.16c1.87,3.97,2.69,8.11,2.11,12.49-.04.3-.12.59.18.81-1.05,1.13-2.45,1.57-3.89,1.77-4.84.69-9.53-.02-14.04-1.81-1.74-.69-3.41-1.6-4.41-3.31-.31-.53-.4-.93.49-.96,4.61-.15,8.75-1.79,12.71-4.03,2.47-1.4,4.78-3.04,6.86-4.97Z"/>
  <path class="cls-2" d="m15.96,17.65c.14.6.33,1.19.67,1.71-1.06.21-.71,1.01-.58,1.59.15.63.55,1.19.78,1.8.07.18.33.39.12.6-.18.18-.39.03-.61-.02-1.68-.42-3.01-1.43-4.14-2.64-1.97-2.1-3.58-4.46-4.51-7.21-.64-1.88-.33-3.55,1.24-4.89,1.89-.29,3.7-1,5.63-1.11.23.9-.2,1.74-.21,2.63-.02,2.12.34,4.19.5,6.29.05.61.31,1.21,1.11,1.24Z"/>
  <path class="cls-2" d="m48.83,48.48c-.6,1.07-2.37,1.85-3.5,1.6-4.17-.94-7.4-3.33-10.05-6.56-.67-.81-1.3-1.81-1.06-3.03,3.5,1.46,7.06,2.39,10.86,2.63,1.64.1,3.24-.29,4.85-.03-.18,1.84-.81,3.59-1.11,5.4Z"/>
  <path class="cls-4" d="m51.31,24.16c.49-4.91-1.85-8.62-5.07-11.96-2.36-2.45-4.92-4.58-8.23-5.66-1.57-.51-3.15-.56-4.75-.2,1.9-2.04,4.23-2.34,6.78-1.66,2.63.7,4.77,2.21,6.77,4.02,2.36,2.13,4.3,4.56,5.56,7.47,1.41,3.28,1.22,5.28-1.07,7.99Z"/>
  <path class="cls-3" d="m36.2,47.04c2.74,2.4,5.66,3.94,9.01,4.86-1.39,1.58-2.97,2.86-4.87,3.71-1.3.58-2.4.12-2.94-1.2-.94-2.3-1.1-4.73-1.2-7.36Z"/>
  <path class="cls-3" d="m5.72,12.27c.4,2.66,1.76,5.3,4.52,8.91-2.63.14-5.12-.12-7.49-1.32-1.14-.58-1.19-1.49-.89-2.43.66-2.09,2.12-3.62,3.86-5.16Z"/>
  <path class="cls-1" d="m31.27,5.69c-4.06-1.9-8.28-2.72-12.75-2.06-.18.03-.37,0-.56,0,1.13-1.48,2.82-1.87,4.49-1.98,3.81-.25,7.47.53,11.13,2.07-.82.7-1.57,1.33-2.31,1.96Z"/>
  <path class="cls-5" d="m48.83,48.48c.3-1.81.92-3.56,1.11-5.4.37-.31.88-.44,1.22-.19.37.28,0,.73-.09,1.11-.41,1.66-.94,3.26-2.24,4.48Z"/>
  <path class="cls-5" d="m14.56,7.48c-1.93.1-3.74.81-5.63,1.11,1.52-1.34,3.36-1.92,5.3-2.26.56-.1.57-.06.32,1.15Z"/>
</svg>