<?xml version="1.0" encoding="UTF-8"?>
<svg id="Capa_1" data-name="Capa 1" xmlns="http://www.w3.org/2000/svg" viewBox="0 0 64.71 55.79">
  <defs>
    <style>
      .cls-1 {
        fill: #fc4755;
      }

      .cls-2 {
        fill: #1e1e1b;
      }

      .cls-3 {
        fill: #1f1f1b;
      }

      .cls-4 {
        fill: #1f1e1b;
      }

      .cls-5 {
        fill: #22201b;
      }

      .cls-6 {
        fill: #24221c;
      }

      .cls-7 {
        fill: #201f1b;
      }

      .cls-8 {
        fill: #6b6b6b;
      }

      .cls-9 {
        fill: #ffb833;
      }

      .cls-10 {
        fill: #fcb632;
      }

      .cls-11 {
        fill: #fd4755;
      }
    </style>
  </defs>
  <path d="m13.96,7.95c-.63-.82.01-1.31.54-1.71C18.64,3.12,23.16.93,28.39.27c7.79-.99,14.83.74,21.06,5.53,5.15,3.97,8.51,9.13,10.02,15.48.17.71.33,1.27,1.47.77,1.59-.7,3.13.37,3.51,2.03.58,2.56.11,5.07-.37,7.56-.33,1.67-1.54,2.18-3.21,1.7-.52-.15-1.03-.49-1.3.65-1.39,5.94-4.42,10.96-9.05,14.95-3.78,3.25-8.11,5.4-13.06,6.34-6.32,1.2-12.34.33-17.95-2.7-7.35-3.96-12.2-10.02-14.23-18.19-.27-1.09-.5-1.46-1.66-.94-1.19.53-2.44-.07-2.79-1.34-.71-2.58-1.12-5.21-.55-7.88.48-2.22,1.99-2.9,4.08-1.94.15.07.3.15.53.27.66-2.93,1.56-5.71,3.02-8.26.68-1.18,1.53-2.27,2.23-3.44.41-.69.97-.9,1.7-.82.83,1-.22,1.52-.63,2.09-4.26,6.01-6.07,12.67-4.81,19.93,1.08,6.22,3.98,11.56,8.92,15.7,6.16,5.17,13.22,7.41,21.14,6.09,6.8-1.14,12.52-4.46,16.81-10,3.11-4.03,4.93-8.61,5.34-13.66.35-4.26-.14-8.46-1.85-12.45-2.1-4.91-5.29-8.94-9.78-11.86-4.65-3.03-9.76-4.43-15.36-4.29-6.08.15-11.42,2.07-16.06,5.99-.45.38-.92.87-1.6.39Zm46.19,20.17c0,.92,0,1.83,0,2.75,0,.58.44.92,1.37,1.13.63.14.93-.23,1.02-.69.46-2.32.84-4.65.31-7.02-.21-.95-.94-.83-1.53-.69-.5.12-1.44.27-1.27.91.31,1.23,0,2.43.1,3.62ZM2.82,23.54c-.71-.14-.91.37-1.01.95-.09.51-.12,1.04-.15,1.53-.13,1.83.04,3.67.67,5.42.41,1.12,1.16.29,1.73.19.39-.07.73-.24.55-.99-.41-1.75-.18-3.58-.13-5.37.03-1.22-.32-1.73-1.66-1.74Z"/>
  <path class="cls-8" d="m13.96,7.95c.68.49,1.14,0,1.6-.39C20.2,3.65,25.54,1.73,31.62,1.58c5.6-.14,10.7,1.26,15.36,4.29,4.48,2.92,7.67,6.95,9.78,11.86,1.71,3.99,2.2,8.18,1.85,12.45-.41,5.06-2.23,9.64-5.34,13.66-4.28,5.54-10,8.86-16.81,10-7.92,1.32-14.97-.92-21.14-6.09-4.94-4.14-7.84-9.47-8.92-15.7-1.26-7.26.55-13.91,4.81-19.93.41-.57,1.46-1.09.63-2.09.65-.75,1.31-1.5,2.13-2.09Zm-6.87,19.85c-.42,13.25,11.52,26.58,27.18,25.31,12.57-1.02,23.52-11.01,23.51-25.37-.01-14.26-11.05-25.19-25.41-25.31-14.21-.12-25.47,11.5-25.28,25.37Z"/>
  <path d="m7.09,27.81c-.2-13.88,11.06-25.49,25.28-25.37,14.36.12,25.4,11.05,25.41,25.31.01,14.36-10.94,24.35-23.51,25.37-15.65,1.27-27.59-12.06-27.18-25.31ZM38.85,5.05c-3.38-1.22-6.88-1.32-10.34-.74-6.25,1.05-11.41,4.09-15.23,9.22-4.26,5.72-5.57,12.21-4.23,19.08,1.1,5.67,4.13,10.36,8.76,13.97,6.08,4.74,12.92,6.04,20.29,4.36,5.22-1.19,9.59-4.13,12.87-8.31,4.41-5.62,6.09-12.04,4.78-19.2-1.24-6.75-4.92-11.82-10.46-15.62-1.53-1.05-3.16-2.12-5.15-2.21-.35-.38-.84-.41-1.29-.55Z"/>
  <path class="cls-9" d="m40.14,5.6c1.99.1,3.61,1.16,5.15,2.21,5.54,3.8,9.22,8.87,10.46,15.62,1.32,7.16-.36,13.58-4.78,19.2-3.28,4.18-7.65,7.12-12.87,8.31-7.36,1.68-14.21.38-20.29-4.36-4.63-3.61-7.66-8.3-8.76-13.97-1.33-6.87-.03-13.36,4.23-19.08,3.82-5.13,8.97-8.17,15.23-9.22,3.46-.58,6.96-.48,10.34.74-1.08.26-2.19.05-3.25-.04-4.55-.39-7.78,4.96-7.32,8.31.09.68.02,1.22-.2,1.81-1.02,2.79-1.49,5.57.1,8.34.06.11.39.27.07.61-1.09,1.17-2.09,1.09-2.91-.31-.73-1.25-.93-2.52-.44-3.92.35-.98.81-1.89,1.43-2.71.3-.4.52-.77.04-1.12-.38-.27-.79-.23-1.19.1-1.13.91-2.33,4.74-2.1,6.15.28,1.7,1.24,2.9,2.47,3.98-.27.37-.52.72-.88.87-1.89-3.44-4.02-6.49-8.56-6.23-.45.03-1.12-.29-1.1.65.02.8.55.86,1.14.93.73.09,1.44-.08,2.19.2,2.72,1.02,4.02,3.26,5.05,5.72.36.86-.42,1.54-.97,1.93-.52.36-.63-.5-.86-.86-1.65-2.58-4.06-3.74-7.07-3.83-.64-.02-1.24.18-1.26.83-.03.73.6.79,1.22.77,2.8-.07,4.73,1.35,6.11,3.67.32.53.52,1.13.04,1.69-.68.8-1.38,1.57-2.06,2.36-.37.43-.62.6-1.12.04-1.24-1.37-3.91-1.16-5.04.28-.3.38-.2.64-.06,1.05,1.55,4.4,4.57,7.44,8.69,9.48.35.17.67.25,1,.12,1.16-.44,2.39-3.86,1.52-4.68-1.22-1.16-.29-1.48.47-1.99.32-.22.66-.41.97-.66.91-.74,1.72-.67,2.69,0,2.09,1.46,3.48,3.23,3.24,5.94-.05.52-.09,1.12.7,1.16.82.04.85-.51.89-1.14.23-3.66-1.68-6.01-4.67-7.72,1.25-1.32,1.8-1.46,3.33-.65,2.55,1.34,4.56,3.1,4.77,6.25.04.6-.45,1.66.7,1.61.99-.04.9-1,.87-1.75-.01-.26-.05-.52-.09-.77-.64-3.47-2.98-5.51-5.91-7.04.44-.86.87-.74,1.47-.1,1.07,1.15,2.51,1.85,4.02,1.71,1.63-.15,3.2-.75,4.64-1.71.97-.64,1.2-1.18.55-1.97,1.72-1.13,3.77-.58,5.63-1.04,4.47-1.09,7.75-4.74,6.14-10.11-.22-.73.03-1.77-1.04-1.99-1.26-.27-1,1.17-1.65,1.61-.01-.12-.02-.23-.03-.35.05-.47-.02-.86-.57-1.01-1.86-.51-3.49.2-4.46,1.97-.34.61-.68,1.19-1.39,1.48-1.06.43-1.56,1.32-1.73,2.41-.06.4-.22.93-.52.95-1.46.08-2.94.04-4.55.04,4.4-2.61,7.42-6.06,8.56-10.96.11-.48-1.32-2.72-1.78-2.74-.12,0-.24.07-.36.1-3.17.76-5.94,2.22-8.26,4.53-1,.99-1.69,2.23-2.75,3.47-.06-.4-.14-.61-.11-.79.2-1.02.44-2.01.01-3.05-.17-.41.13-.54.57-.6,1.11-.15,2.19-.62,2.69-1.61.53-1.06,1.34-1.58,2.3-2.11,1.1-.6,1.49-1.67,1.6-2.94.1-1.12-.48-1.53-1.43-1.84.76-.66,2.51-.77,1.14-2.3Zm-17.43,4.75c-.03-.53-.29-.81-.83-.8-.56.01-.99.35-.97.84.02.38.44.74.95.74.53,0,.81-.26.85-.78Zm21.66-.07c-.06-.5-.33-.75-.86-.74-.57.02-.76.34-.74.85.02.49.3.9.73.85.43-.05.94-.3.86-.96Zm5.8,5.44c.02-.56-.21-.93-.75-.86-.44.06-.81.38-.82.87-.01.49.36.89.78.89.46,0,.91-.3.79-.9Zm3.17,17.45c-.05-.54-.43-.65-.92-.65-.49,0-.92.09-.9.67.01.48.38.9.81.85.41-.04.95-.24,1.01-.88Zm-25.13,10.17c-.15-.64-.48-.85-1.06-.78-.45.06-.81.23-.73.7.08.49.39.91.96.85.46-.05.75-.39.83-.78Zm14.53,1.66c.32-.25.83-.4.82-.98,0-.47-.36-.62-.81-.67-.62-.07-.95.3-.97.77-.03.45.42.71.96.88ZM21.38,15.37c0-.52-.23-.81-.77-.81-.5,0-.83.19-.82.76,0,.52.22.82.77.82.51,0,.82-.23.83-.78Zm-5.48,15.03c-.61-.08-.81.4-.82.78,0,.37.14.84.75.83.52-.01.91-.34.95-.72.06-.5-.38-.81-.88-.89Zm-4.57,2.14c.53-.02.95-.34.97-.82.01-.41-.39-.71-.88-.79-.61-.1-.81.36-.83.74-.02.37.13.88.74.86Zm.76-11.92c-.27.2-.76.39-.71.87.05.47.34.81.97.75.58-.05.8-.45.76-.83-.04-.41-.41-.74-1.02-.79Zm37.3,18.68c0-.6-.18-.94-.74-.96-.51-.02-.83.17-.86.73-.02.52.17.84.73.85.5.02.83-.18.87-.62Zm-6.62.66c-.03.48.26.73.78.75.53.02.81-.22.82-.76.01-.53-.25-.8-.78-.82-.53-.02-.81.24-.82.84Zm-26.38-23.3c.28-.23.85-.24.76-.91-.08-.55-.42-.7-.91-.66-.55.04-.73.37-.69.88.03.46.27.7.84.7Zm31.23,17.98c-.38,0-.64.25-.62.8.02.44.18.8.66.76.46-.04.94-.18.93-.81,0-.54-.31-.76-.97-.74Zm-14.08,13.17c-.04-.45-.24-.76-.73-.75-.36,0-.85-.16-.86.49,0,.44-.05.95.51,1.06.58.11.83-.36,1.07-.8Zm3.23.86c.22-.31.79-.25.74-.9-.04-.46-.1-.75-.65-.73-.47.02-.92.04-.94.65-.01.51.37.74.85.98Zm-9.59-.95c.1-.56-.17-.7-.65-.68-.46.02-.93.08-.9.65.02.51.37.94.89.87.34-.05.88-.26.67-.84Zm-1.65-35.55c.54.24.72-.31.79-.69.08-.47-.32-.65-.78-.64-.46,0-.93.02-.98.61-.05.58.36.73.97.72Zm-12.89,13.32c.08-.53-.19-.66-.67-.64-.48.02-.9.11-.89.68.01.57.44.64.92.65.51.02.73-.18.64-.69ZM28.13,6.37c-.56-.01-.97.12-.93.71.04.58.51.59.97.62.58.04.58-.31.62-.74.05-.62-.31-.62-.66-.59Z"/>
  <path d="m40.14,5.6c1.38,1.52-.38,1.63-1.14,2.3.95.3,1.53.71,1.43,1.84-.11,1.28-.5,2.34-1.6,2.94-.96.53-1.77,1.05-2.3,2.11-.49.99-1.58,1.46-2.69,1.61-.44.06-.74.19-.57.6.43,1.04.19,2.03-.01,3.05-.04.18.05.39.11.79,1.06-1.23,1.75-2.47,2.75-3.47,2.32-2.31,5.09-3.78,8.26-4.53.12-.03.24-.11.36-.1.46.02,1.9,2.26,1.78,2.74-1.14,4.9-4.15,8.35-8.56,10.96,1.61,0,3.09.04,4.55-.04.3-.02.46-.55.52-.95.17-1.09.66-1.98,1.73-2.41.71-.29,1.06-.87,1.39-1.48.98-1.77,2.61-2.49,4.46-1.97.55.15.62.54.57,1.01-1.25.68-1.97,1.76-2.43,3.4,1.35-.85,2.06-1.83,2.47-3.05.65-.44.38-1.88,1.65-1.61,1.07.23.82,1.27,1.04,1.99,1.61,5.37-1.67,9.02-6.14,10.11-1.86.45-3.91-.09-5.63,1.04.65.78.42,1.32-.55,1.97-1.44.96-3.01,1.56-4.64,1.71-1.51.14-2.94-.56-4.02-1.71-.6-.64-1.03-.76-1.47.1,2.93,1.53,5.28,3.56,5.91,7.04.05.26.08.51.09.77.03.75.12,1.71-.87,1.75-1.15.04-.66-1.01-.7-1.61-.21-3.15-2.23-4.91-4.77-6.25-1.53-.81-2.08-.67-3.33.65,2.98,1.71,4.89,4.05,4.67,7.72-.04.63-.07,1.18-.89,1.14-.79-.04-.74-.63-.7-1.16.24-2.71-1.15-4.48-3.24-5.94-.97-.68-1.78-.75-2.69,0-.3.24-.64.44-.97.66-.77.51-1.7.83-.47,1.99.87.82-.36,4.25-1.52,4.68-.33.12-.65.05-1-.12-4.12-2.04-7.13-5.08-8.69-9.48-.14-.41-.25-.67.06-1.05,1.14-1.44,3.8-1.65,5.04-.28.5.56.75.38,1.12-.04.68-.79,1.39-1.57,2.06-2.36.48-.56.28-1.16-.04-1.69-1.37-2.31-3.31-3.73-6.11-3.67-.62.01-1.25-.04-1.22-.77.03-.65.63-.85,1.26-.83,3,.09,5.42,1.24,7.07,3.83.23.36.34,1.22.86.86.55-.38,1.33-1.07.97-1.93-1.03-2.46-2.33-4.7-5.05-5.72-.75-.28-1.46-.12-2.19-.2-.59-.07-1.12-.13-1.14-.93-.02-.93.65-.62,1.1-.65,4.55-.26,6.68,2.79,8.56,6.23.37-.15.62-.5.88-.87-1.23-1.08-2.19-2.28-2.47-3.98-.23-1.41.97-5.24,2.1-6.15.4-.33.82-.37,1.19-.1.48.35.26.72-.04,1.12-.62.82-1.08,1.73-1.43,2.71-.5,1.39-.3,2.67.44,3.92.82,1.4,1.82,1.48,2.91.31.32-.34,0-.5-.07-.61-1.6-2.77-1.12-5.55-.1-8.34.21-.59.29-1.14.2-1.81-.45-3.35,2.78-8.7,7.32-8.31,1.06.09,2.16.29,3.25.04.45.13.94.17,1.29.55Zm-5.52,22.27c-.14-1.15-.56-2.18-1.67-2.74-1.23-.62-2.54-.56-3.64.17-1.94,1.29-3.44,3.06-4.78,4.96-.28.4-.16.62.02.91.68,1.12,1.52,2.08,2.62,2.85.69.48,1.31.48,1.92.06,1.21-.84,2.48-1.63,3.52-2.65.97-.95,1.95-2.01,2.02-3.56Zm2.73-3.02c.24-.08.5-.13.71-.26,3.1-1.96,5.34-4.62,6.55-8.1.23-.66.96-1.48.42-2.03-.53-.54-1.35.19-2.01.4-3.58,1.16-6.1,3.66-8.13,6.72-.09.13-.52.48.19.69,1.19.35,2.07,1.17,2.26,2.57Zm9.7-1.29c-.51.29-.96.54-1.4.8-1.24.73-1.45,1.93-1.26,3.16.17,1.08.41,2.3,1.83,2.52,1.27.2,2.31-.51,3.36-1.03,2.12-1.06,3.08-2.89,3.24-5.2.03-.4.02-.84-.43-.99-.45-.15-.38.38-.58.57-.83.8-1.41,1.87-2.57,2.33-.64.26-1.24.39-1.82-.05-.56-.42-.53-.93-.2-1.5.1-.17.12-.43-.18-.6Zm-11.01-11.33c-1.75-.09-2.46-.53-2.2-1.45.19-.68.44-1.38,1-1.92.79-.76,1.57-1.52,2.64-2.14-4.56-.6-6.33,1.24-7.56,4.97-.55,1.67.46,2.99,2.2,3.16,2.01.2,3.32-.55,3.91-2.61Zm-9.39,23.39c-1.23-.8-2.25-1.75-3.02-2.9-.41-.62-.62-.43-.95-.06-1.26,1.44-2.56,2.85-3.75,4.34-.6.75-.12,1.54.45,2.09.43.42.92.82,1.69.26,1.8-1.31,3.7-2.49,5.58-3.73Zm-4.49,6.88c.18-.54-.26-.69-.62-.93-.57-.39-1.25-.27-1.86-.51-1.8-.72-2.44-2.18-2.82-3.92-.14-.65-.4-1.36-1.29-1.44-.54-.05-1.23-.05-1.44.37-.29.59.2,1.21.51,1.74,1.4,2.4,3.22,4.41,5.66,5.81.38.22.72.82,1.25.42.47-.35.67-.9.6-1.54Zm19.44-9.9c-1.03-.3-1.96.41-3.05.03-.96-.33-1.98-.52-2.88-1.01-.95-.52-1.31.31-1.85.75-.36.3-.36.59.01.85.77.52,1.44,1.13,2.5,1.2,2.04.14,3.61-.85,5.27-1.82Zm-3.6-4.31c-.63.31-1.83-.24-2.08,1.03-.16.8,1.19,1.6,2.57,1.62.43,0,1.13,0,.79-.57-.4-.68.51-2.13-1.28-2.08Zm-7.78-8.26c-.42.4-1.53-.42-1.37.6.15.94.13,2.28,1.46,2.61.71.17,1.43-1.2,1.35-2.57-.07-1.1-.98-.29-1.44-.64Zm13.33,10.25c-.18-.56-.31-1.11-.54-1.61-.34-.74-1.05-.62-1.69-.62-.3,0-.62-.06-.67.41-.1.85.02,1.73.47,2.37.27.38,1.01-.2,1.56-.25.29-.03.56-.18.86-.29Zm-13.11-11.69c.4-.44,1.4.58,1.48-.63.07-1.1-.92-2.19-1.94-2.04-1.01.15-.87,1.11-.95,1.85-.13,1.26.87.56,1.4.82Zm5.21-8.25c1.28-.01,2.1-.61,2.83-1.38.16-.17.5-.35.25-.62-.18-.2-.48-.13-.72.02-.84.51-1.71.99-2.36,1.99Z"/>
  <path class="cls-10" d="m51.24,20.95c-.41,1.22-1.12,2.2-2.47,3.05.47-1.65,1.18-2.72,2.43-3.4.01.12.02.23.03.35Z"/>
  <path class="cls-6" d="m22.7,10.34c-.04.53-.32.79-.85.78-.51,0-.93-.36-.95-.74-.03-.49.41-.83.97-.84.54-.01.8.27.83.8Z"/>
  <path class="cls-4" d="m44.37,10.28c.08.66-.43.92-.86.96-.43.05-.72-.36-.73-.85-.02-.52.17-.84.74-.85.53-.02.81.23.86.74Z"/>
  <path class="cls-3" d="m50.17,15.72c.12.6-.33.89-.79.9-.42,0-.79-.39-.78-.89.01-.49.38-.81.82-.87.54-.07.77.3.75.86Z"/>
  <path class="cls-4" d="m53.33,33.17c-.07.64-.6.84-1.01.88-.43.04-.8-.37-.81-.85-.02-.58.41-.68.9-.67.49,0,.87.11.92.65Z"/>
  <path class="cls-7" d="m28.2,43.34c-.08.39-.37.73-.83.78-.57.06-.88-.37-.96-.85-.08-.48.28-.65.73-.7.58-.07.91.14,1.06.78Z"/>
  <path class="cls-5" d="m42.73,45c-.54-.17-.99-.44-.96-.88.03-.47.36-.84.97-.77.45.05.8.2.81.67.01.58-.5.73-.82.98Z"/>
  <path class="cls-7" d="m21.38,15.37c0,.55-.31.77-.83.78-.55,0-.76-.3-.77-.82,0-.57.32-.76.82-.76.54,0,.78.29.77.81Z"/>
  <path class="cls-3" d="m15.9,30.4c.5.09.95.39.88.89-.05.38-.43.71-.95.72-.61.01-.76-.46-.75-.83.01-.38.21-.86.82-.78Z"/>
  <path class="cls-3" d="m11.33,32.54c-.62.02-.76-.49-.74-.86.02-.38.23-.84.83-.74.49.08.89.37.88.79-.01.48-.44.8-.97.82Z"/>
  <path class="cls-4" d="m12.09,20.62c.61.05.99.38,1.02.79.03.38-.18.78-.76.83-.63.06-.93-.28-.97-.75-.05-.47.44-.66.71-.87Z"/>
  <path class="cls-2" d="m49.39,39.3c-.04.44-.37.63-.87.62-.56-.02-.75-.34-.73-.85.02-.56.34-.74.86-.73.56.02.74.36.74.96Z"/>
  <path class="cls-7" d="m42.77,39.97c.01-.6.29-.86.82-.84.53.02.79.29.78.82-.01.54-.29.78-.82.76-.52-.02-.81-.26-.78-.75Z"/>
  <path class="cls-4" d="m16.38,16.67c-.56,0-.8-.24-.84-.7-.04-.5.14-.84.69-.88.49-.04.83.12.91.66.09.67-.49.69-.76.91Z"/>
  <path class="cls-4" d="m47.62,34.64c.66-.02.97.2.97.74,0,.63-.48.77-.93.81-.48.05-.64-.31-.66-.76-.02-.54.24-.79.62-.8Z"/>
  <path class="cls-4" d="m33.54,47.81c-.25.44-.49.91-1.07.8-.57-.11-.52-.61-.51-1.06,0-.65.5-.48.86-.49.49,0,.69.29.73.75Z"/>
  <path class="cls-7" d="m36.77,48.68c-.48-.23-.87-.47-.85-.98.02-.6.47-.62.94-.65.56-.03.61.26.65.73.05.65-.52.59-.74.9Z"/>
  <path class="cls-7" d="m27.17,47.73c.21.59-.33.8-.67.84-.52.07-.87-.35-.89-.87-.02-.58.44-.63.9-.65.48-.03.75.12.65.68Z"/>
  <path class="cls-7" d="m25.53,12.18c-.61.02-1.02-.14-.97-.72.05-.59.52-.6.98-.61.46,0,.86.17.78.64-.07.38-.25.93-.79.69Z"/>
  <path class="cls-2" d="m12.64,25.5c.09.52-.13.71-.64.69-.48-.01-.91-.08-.92-.65-.01-.58.41-.66.89-.68.49-.02.76.11.67.64Z"/>
  <path class="cls-7" d="m28.13,6.37c.35-.03.71-.03.66.59-.04.43-.04.78-.62.74-.45-.03-.92-.04-.97-.62-.04-.58.37-.72.93-.71Z"/>
  <path class="cls-11" d="m34.61,27.87c-.07,1.56-1.05,2.62-2.02,3.56-1.04,1.02-2.31,1.82-3.52,2.65-.61.42-1.22.42-1.92-.06-1.1-.77-1.94-1.72-2.62-2.85-.18-.3-.3-.52-.02-.91,1.34-1.9,2.84-3.67,4.78-4.96,1.11-.74,2.41-.79,3.64-.17,1.12.56,1.53,1.58,1.67,2.74Z"/>
  <path class="cls-9" d="m37.34,24.84c-.19-1.4-1.07-2.22-2.26-2.57-.71-.21-.28-.55-.19-.69,2.02-3.06,4.55-5.56,8.13-6.72.65-.21,1.48-.94,2.01-.4.54.55-.19,1.37-.42,2.03-1.21,3.47-3.46,6.14-6.55,8.1-.21.13-.47.17-.71.26Zm.52-5.53c-.41,0-.63.29-.63.81,0,.54.27.8.8.78.52-.02.79-.29.78-.82,0-.55-.31-.77-.96-.77Zm4.68-2.11c-.46-.04-.81-.02-.85.63-.03.59.33.86.71.89.51.03.83-.38.89-.92.06-.57-.3-.64-.75-.6Z"/>
  <path class="cls-11" d="m47.04,23.55c.29.18.27.44.18.6-.33.57-.36,1.08.2,1.5.59.43,1.18.3,1.82.05,1.16-.46,1.74-1.53,2.57-2.33.2-.19.13-.72.58-.57.45.15.46.59.43.99-.16,2.3-1.12,4.14-3.24,5.2-1.05.53-2.09,1.23-3.36,1.03-1.42-.22-1.66-1.43-1.83-2.52-.19-1.23.02-2.44,1.26-3.16.44-.26.89-.51,1.4-.8Z"/>
  <path class="cls-11" d="m36.04,12.22c-.59,2.07-1.9,2.81-3.91,2.61-1.74-.17-2.75-1.49-2.2-3.16,1.22-3.73,3-5.58,7.56-4.97-1.07.63-1.85,1.39-2.64,2.14-.57.54-.81,1.24-1,1.92-.26.92.45,1.36,2.2,1.45Z"/>
  <path class="cls-11" d="m26.65,35.62c-1.87,1.24-3.78,2.42-5.58,3.73-.77.56-1.25.16-1.69-.26-.57-.55-1.05-1.34-.45-2.09,1.19-1.5,2.49-2.9,3.75-4.34.33-.37.54-.56.95.06.76,1.15,1.78,2.1,3.02,2.9Z"/>
  <path class="cls-11" d="m22.15,42.5c.06.64-.13,1.19-.6,1.54-.53.4-.87-.2-1.25-.42-2.43-1.4-4.25-3.41-5.66-5.81-.31-.53-.8-1.16-.51-1.74.21-.43.9-.42,1.44-.37.89.08,1.15.79,1.29,1.44.37,1.74,1.02,3.2,2.82,3.92.61.24,1.29.12,1.86.51.37.25.8.4.62.93Z"/>
  <path class="cls-9" d="m41.59,32.59c-1.66.96-3.23,1.96-5.27,1.82-1.06-.07-1.73-.68-2.5-1.2-.37-.25-.37-.55-.01-.85.54-.45.89-1.28,1.85-.75.91.5,1.93.69,2.88,1.01,1.09.38,2.02-.33,3.05-.03Z"/>
  <path class="cls-1" d="m38,28.29c1.79-.06.88,1.4,1.28,2.08.34.57-.36.57-.79.57-1.38-.02-2.72-.81-2.57-1.62.25-1.27,1.45-.72,2.08-1.03Z"/>
  <path class="cls-1" d="m30.22,20.02c.46.35,1.37-.46,1.44.64.09,1.37-.64,2.74-1.35,2.57-1.33-.32-1.31-1.67-1.46-2.61-.16-1.02.95-.2,1.37-.6Z"/>
  <path class="cls-1" d="m43.55,30.27c-.3.1-.57.25-.86.29-.55.06-1.29.63-1.56.25-.46-.63-.57-1.52-.47-2.37.05-.47.37-.41.67-.41.64,0,1.35-.12,1.69.62.23.5.35,1.05.54,1.61Z"/>
  <path class="cls-11" d="m30.44,18.58c-.53-.26-1.53.44-1.4-.82.08-.73-.06-1.7.95-1.85,1.01-.15,2.01.94,1.94,2.04-.08,1.21-1.09.19-1.48.63Z"/>
  <path class="cls-10" d="m35.65,10.33c.65-1,1.52-1.47,2.36-1.99.24-.15.54-.22.72-.02.25.28-.09.45-.25.62-.73.77-1.54,1.37-2.83,1.38Z"/>
  <path class="cls-4" d="m37.86,19.31c.66,0,.96.22.96.77,0,.53-.27.8-.78.82-.53.02-.8-.24-.8-.78,0-.53.22-.82.63-.81Z"/>
  <path class="cls-4" d="m42.54,17.21c.45-.04.81.03.75.6-.06.53-.37.95-.89.92-.38-.02-.74-.3-.71-.89.04-.65.39-.68.85-.63Z"/>
</svg>