<?xml version="1.0" encoding="UTF-8"?>
<svg id="Capa_1" data-name="Capa 1" xmlns="http://www.w3.org/2000/svg" viewBox="0 0 36.36 52.17">
  <defs>
    <style>
      .cls-1 {
        fill: #484848;
      }
    </style>
  </defs>
  <path class="cls-1" d="m18.17,0c8.61-.01,16.17,6.13,17.82,14.49,1.72,8.69-2.79,17.16-10.92,20.45-.76.31-1.08.68-1.18,1.52-.43,3.66-.96,7.3-1.46,10.95-.07.52-.24.97-.63,1.36-.94.95-1.85,1.92-2.74,2.9-.58.64-1.13.7-1.71.02-.04-.05-.09-.11-.14-.15-3.08-2.17-3.65-5.43-3.93-8.86-.18-2.21-.58-4.39-.84-6.6-.07-.62-.4-.83-.92-1.05C4.25,32.12-.39,25.02.03,17.47.47,9.34,5.76,2.73,13.52.6,15.04.18,16.6,0,18.17,0Zm0,25.89c4.27,0,7.76-3.46,7.78-7.72.02-4.24-3.47-7.75-7.73-7.78-4.23-.03-7.77,3.49-7.78,7.73-.01,4.25,3.47,7.76,7.73,7.77Z"/>
</svg>