<?xml version="1.0" encoding="UTF-8"?>
<svg id="Capa_1" data-name="Capa 1" xmlns="http://www.w3.org/2000/svg" viewBox="0 0 227.26 120.1">
  <defs>
    <style>
      .cls-1 {
        fill: #484848;
      }
    </style>
  </defs>
  <path class="cls-1" d="m200.76,120.1c.29-.26.54-.59.87-.76,4.94-2.49,9.7-5.26,13.97-8.8,2.4-1.99,4.51-4.23,5.86-7.11,1.64-3.5.98-6.81-2.18-8.81-.17-.1-.26-.32-.39-.49.19.05.39.08.57.16,3.08,1.39,5.85,3.24,7.08,6.53.59,1.57.73,3.39.73,5.09,0,5.27-3.11,9.12-6.19,12.96-.3.37-.51.82-.77,1.23h-19.55Z"/>
  <path class="cls-1" d="m67.53,4.47c.98,0,1.97.06,2.94-.02.85-.06,1.02.28,1.05,1.06.24,5.46.53,10.92.8,16.39,0,.15-.03.32.01.46.09.31.22.61.33.92.2-.28.45-.54.58-.85,1.26-3.04,2.51-6.1,3.75-9.15,1.01-2.48,2.04-4.95,2.99-7.45.32-.83.7-1.22,1.66-1.17,1.91.09,3.83.07,5.74,0,.95-.03,1.06.23.89,1.14-1.67,8.87-3.28,17.75-4.92,26.62-1.08,5.83-2.21,11.65-3.25,17.49-.18.99-.55,1.28-1.51,1.22-1.39-.08-2.79-.05-4.19-.03-.66.01-.87-.08-.73-.87,1.24-6.59,2.42-13.19,3.61-19.78.44-2.44.86-4.88,1.26-7.32.04-.23-.08-.49-.13-.73-.16.17-.4.32-.48.52-1.06,2.57-2.12,5.14-3.15,7.73-1.89,4.73-3.77,9.47-5.65,14.21-.11.27-.28.52-.42.78-.06-.27-.15-.55-.16-.82-.22-4.74-.43-9.49-.65-14.23-.1-2.27-.2-4.54-.33-6.81-.01-.26-.2-.52-.3-.77-.13.25-.34.48-.39.75-.69,3.76-1.35,7.51-2.02,11.27-.89,4.97-1.8,9.95-2.64,14.93-.14.84-.48,1.08-1.28,1.07-1.44-.03-2.89-.02-4.34.07-.93.06-.98-.29-.84-1.09.94-5.18,1.83-10.36,2.73-15.54,1.15-6.6,2.3-13.21,3.43-19.82.07-.39.03-.8.03-1.2-.37.1-.74.2-1.11.3-.5.14-.98.31-1.49.42-2.6.58-2.86.33-2.39-2.19.07-.36.09-.72.15-1.07.11-.66.05-1.47.42-1.92.28-.34,1.13-.21,1.72-.3,1.85-.3,3.08-1.43,3.79-3.08.41-.95.95-1.32,1.98-1.2.82.1,1.65.02,2.48.02,0,.02,0,.05,0,.07Z"/>
  <path class="cls-1" d="m131.86,4.52c2.19.28,4.48.24,6.54.9,4.37,1.4,7.05,4.48,7.75,9.13.72,4.75-.73,8.84-3.74,12.47-1.25,1.5-2.78,2.6-4.66,3.18-.49.15-1.01.23-.66,1.03,1.84,4.28,1.82,8.72,1.17,13.23-.24,1.63-.34,3.28-.48,4.93-.12,1.51.66,2.67,1.57,3.75.57.68,1.36.82,2.11.48.99-.44,1.13.07,1.22.85.14,1.33.35,2.66.46,4,.03.34-.13.87-.38,1.03-2.26,1.5-4.71,2.39-7.46,1.94-2.56-.43-4.62-2.69-4.83-5.72-.16-2.29.01-4.65.38-6.92.68-4.18,1.67-8.32,1.45-12.57-.08-1.55-.67-3.07-1.01-4.61-.08-.38-.2-.79-.14-1.16.22-1.32.48-2.64.78-3.94.06-.26.39-.63.63-.65,4.12-.39,5.98-3.14,6.89-6.72.34-1.36.34-2.87.19-4.29-.23-2.27-2.47-4.13-4.73-4.12-.89,0-1.57.24-1.81,1.42-1.52,7.37-3.15,14.71-4.73,22.07-1.14,5.29-2.28,10.58-3.38,15.87-.17.84-.53,1.07-1.35,1.04-1.65-.06-3.31-.08-4.96,0-1.08.06-1.19-.37-.99-1.27.82-3.73,1.6-7.46,2.39-11.19,1.46-6.91,2.91-13.82,4.36-20.73.24-1.16.44-2.33.69-3.49.16-.74-.06-.74-.71-.56-1.17.33-2.39.54-3.59.74-.69.11-1.07-.09-.79-.94.26-.78.37-1.6.55-2.41.15-.65.13-1.49.53-1.9.36-.37,1.2-.25,1.83-.37,1.79-.34,2.93-1.52,3.63-3.08.44-.97,1-1.28,2.01-1.2,1.08.08,2.17.02,3.26.02.01-.08.02-.16.03-.24Z"/>
  <path class="cls-1" d="m183.68,39.08c-.12-4.9-.23-9.81-.37-14.71-.01-.47-.23-.93-.35-1.39-.17.41-.39.82-.5,1.24-2.18,8.48-4.37,16.96-6.48,25.46-.3,1.21-.8,1.56-1.99,1.47-1.28-.1-2.58-.02-3.87.06-.85.05-.92-.29-.74-1,1.01-3.99,1.99-8,2.99-11.99,1.97-7.84,3.94-15.68,5.9-23.53.09-.38.03-.79.05-1.19-.33.14-.64.33-.98.4-1.15.25-2.3.5-3.47.68-.73.11-1.03-.19-.74-.99.23-.62.36-1.29.48-1.95.31-1.68.72-2.95,3-2.95,1.72,0,2.85-1.57,3.61-3.08.42-.84.93-1.05,1.8-1.02,1.55.06,3.1.05,4.65,0,.81-.03,1.05.26,1.06,1.06.12,6.14.28,12.28.44,18.42.06,2.22.12,4.44.21,6.65,0,.21.18.41.28.62.13-.18.33-.35.38-.55.93-3.48,1.85-6.97,2.76-10.46,1.26-4.89,2.52-9.78,3.76-14.67.21-.84.55-1.3,1.56-1.22,1.33.11,2.68-.01,4.03-.02,1.48-.01,1.51,0,1.15,1.35-.76,2.89-1.56,5.77-2.33,8.66-2.52,9.51-5.03,19.02-7.55,28.54-.63,2.39-1.31,4.77-1.85,7.18-.18.8-.56,1-1.26.99-1.38-.01-2.76-.06-4.14.03-1,.07-1.2-.32-1.18-1.24.05-3.61.02-7.22.02-10.83-.1,0-.21,0-.31,0Z"/>
  <path class="cls-1" d="m.03,32.04c-.19-4.54.61-8.92,2.03-13.22.3-.92.56-1.42,1.77-1.34,2.56.17,5.49-2.46,5.88-5.02.02-.14-.05-.29-.07-.43-.16.06-.38.07-.49.19-1.84,1.99-4.26,2.08-6.72,2.1-.77,0-1.2-.22-.95-1.09.08-.29.06-.62.12-.92.2-1.17.05-2.65.72-3.41.54-.62,2.07-.36,3.16-.52,1.68-.25,3.08-1.03,4.35-2.17,2.13-1.92,4.56-3.16,7.54-3.07,3.83.11,6.27,2.3,8.19,5.31.13.2.19.49.16.73-.29,1.89-.6,3.77-.93,5.65-.01.06-.46.16-.55.08-.48-.47-.87-1.02-1.35-1.49-2.89-2.85-6.61-2.64-9.14.54-1.76,2.22-2.7,4.84-3.59,7.48-1.84,5.53-2.36,11.18-1.49,16.94.21,1.35.66,2.71,1.25,3.95,1.05,2.2,2.99,3.07,5.26,2.23,1.56-.58,2.97-1.57,4.44-2.4.35-.2.65-.48.97-.72-.02.38-.02.76-.07,1.13-.29,1.99-.54,3.99-.91,5.96-.1.54-.43,1.16-.85,1.51-5.05,4.26-11.1,3.44-14.82-2.04C1.38,44.23.43,39.91.05,35.45c-.1-1.13-.01-2.27-.01-3.41Z"/>
  <path class="cls-1" d="m154.31,51.21c-2.74,0-5.48-.03-8.21.02-.87.01-1.15-.13-.92-1.08,1.13-4.87,2.16-9.76,3.27-14.63,1.56-6.88,3.17-13.75,4.74-20.63.08-.34.04-.7.06-1.05-.37.09-.74.17-1.1.28-.34.11-.67.33-1.01.36-.92.08-1.84.09-2.77.13.09-.8.17-1.61.27-2.41.04-.31.09-.61.16-.91.16-.65.15-1.48.56-1.89.37-.37,1.2-.27,1.82-.39,1.96-.38,3.11-1.75,3.94-3.4.34-.67.71-.86,1.41-.87,5.68-.07,11.36-.18,17.03-.26,1.39-.02,1.38.02.99,1.36-.36,1.24-.78,2.46-1.01,3.73-.15.88-.58,1.06-1.35,1.06-2.69,0-5.37.04-8.06.05-2.87,0-2.9,0-3.57,2.69-.62,2.5-1.17,5.01-1.73,7.53-.31,1.41-.29,1.43,1.21,1.44,2.07,0,4.13.02,6.2-.06.87-.03,1.1.18.84,1.04-.41,1.33-.76,2.68-1.06,4.03-.17.74-.5.99-1.27.97-2.12-.06-4.24.01-6.35-.04-.99-.03-1.49.33-1.71,1.32-1.08,4.83-2.2,9.64-3.34,14.46-.24,1.02.02,1.34,1.1,1.33,3.2-.05,6.41.08,9.61,0,1.18-.02,1.26.4,1,1.33-.34,1.19-.62,2.39-.91,3.59-.17.69-.51.97-1.29.96-2.84-.06-5.68-.02-8.52-.02,0-.01,0-.02,0-.03Z"/>
  <path class="cls-1" d="m218.44,76.02c1.41,0,2.19.65,2.12,2.12-.06,1.2-.33,2.48-.85,3.56-1.52,3.14-3.23,6.2-4.83,9.31-.23.44-.26.98-.38,1.47-.02.09.01.25-.04.27-2.26,1.28-3.05,3.74-4.5,5.66-1.45,1.93-2.8,3.94-4.21,5.91-.11.15-.38.19-.58.28.01-.19-.03-.43.06-.57.26-.44.57-.86.88-1.26,3.45-4.48,5.91-9.51,8.14-14.67.12-.28.18-.59.26-.89.28-1,.61-2.08-.25-2.91-.89-.85-1.86-.15-2.74.17-1.06.39-2.07.92-3.11,1.35-.66.27-.99.05-.86-.7.3-1.72.58-3.45.94-5.16.08-.38.42-.89.76-1.01,2.76-1,5.54-1.93,8.32-2.86.29-.1.61-.06.86-.09Z"/>
  <path class="cls-1" d="m218.38,93.94c-.08.03-.19.1-.23.07-.07-.04-.1-.15-.14-.22.09-.01.18-.05.25-.03.05.02.08.12.12.18Z"/>
  <path class="cls-1" d="m194.66,77.58c-1.19,0-2.38-.03-3.56.01-.61.02-.89-.16-.73-.78.49-1.89.97-3.78,1.53-5.65.08-.27.63-.64.89-.59,2.27.39,4.62.6,6.76,1.38,2.23.81,2.73,2.91,1.73,5-.37.76-.8,1.04-1.68.92-1.63-.21-3.28-.27-4.93-.39,0,.04,0,.07,0,.11Z"/>
  <path class="cls-1" d="m221.81,1.43c-.11.14-.25.26-.34.42-.66,1.22-1.23,2.5-1.98,3.67-1.37,2.15-3.14,3.87-5.83,4.17-2.33.26-2.33.21-2.89,2.46-.09.35-.18.7-.28,1.04-.69,2.27-.51,2.49,1.84,2.07.45-.08.93-.19,1.32-.42.97-.58,1.89-1.23,2.84-1.85.16-.11.33-.19.5-.28,0,.22.09.52-.02.66-.92,1.23-1.87,2.43-2.81,3.63-.44.56-.98,1.05-1.3,1.66-3.9,7.44-7.65,14.96-11.68,22.33-4.26,7.8-8.43,15.6-10.55,24.31-.3,1.24-.37,2.87-1.19,3.57-.88.76-2.52.65-3.83.89-10.88,1.95-21.24,5.49-31.24,10.13-5.95,2.76-11.73,5.86-16.84,10.04-2.13,1.74-4.08,3.65-5.2,6.24-.67,1.56-.63,3.05.54,4.33,1.96,2.12,3.99,4.18,6.01,6.25.11.11.31.14.47.21-.03-.19-.02-.4-.09-.56-.46-.98-.89-1.98-1.44-2.9-.58-.96-.22-1.15.7-1.08.46.04.93.06,1.39.04,3.35-.15,6.73-.05,10.03-.5,9.39-1.28,18.42-4.03,27.24-7.44,2.95-1.14,5.94-2.09,9.19-1.72,2.46.28,4.15,1.74,4.82,4.14.59,2.14.31,4.22-.52,6.2-2.95,6.99-7.29,12.8-14.25,16.31-.22.11-.33.43-.48.66h16.75c.26-.33.5-.68.77-1,1.4-1.63,2.89-3.19,4.18-4.9,1.87-2.5,3.07-5.36,4.05-8.3,2.08-6.24,3.07-12.72,4.05-19.2.59-3.88,1.06-7.78,1.7-11.64.45-2.71-.49-4.59-3.08-5.43-3.14-1.02-6.4-1.07-9.66-.97-1.97.06-1.97.08-1.15-1.72.02-.05.04-.09.06-.14,3.15-6.98,7.38-13.34,11.44-19.8.28-.44.95-.85,1.46-.88,1.65-.11,3.31-.03,4.96-.06.6,0,.83.23.81.83-.05,1.14-.02,2.28-.09,3.41-.05.75.08,1.15.98,1.1,1.7-.09,3.41-.11,5.12-.08.74.01.82-.36.85-.94.28-5.26.57-10.52.87-15.77.37-6.44.76-12.88,1.14-19.32.26-4.43.52-8.86.77-13.3.01-.18-.07-.36-.11-.55Zm-22.56,76.93c1.07.06.8.55.28,1.11-3.02,3.25-6.62,5.74-10.46,7.89-7.55,4.23-15.57,7.36-23.85,9.74-4.75,1.36-9.63,2.24-14.46,3.32-.37.08-.79-.01-1.18-.02.15-.37.22-.78.45-1.09,8.31-11.21,19.38-17.98,33.06-20.54.59-.11,1.15-.32,1.73-.49-.5,0-1.02-.07-1.51,0-7.68,1.22-15.1,3.25-22.13,6.64-7.7,3.71-14.54,8.62-20.64,14.56-.86.84-1.59,1.17-2.82.79-3.32-1.02-4.29-3.35-2.42-6.35,1.73-2.78,4.33-4.68,6.95-6.53,6.02-4.26,12.74-7.15,19.51-9.96,7.04-2.92,14.34-4.85,21.85-6.05.93-.15,1.85-.37,2.78-.56,0,.05.02.1.03.14.72-.08,1.44-.2,2.15-.2.22,0,.65.35.64.51-.15,1.95-.36,3.9-.59,5.85-.03.23-.5.59-.47.62,1.1,1.22.11,2.86.85,4.13.14.24.39.42.59.63.09-.26.22-.52.25-.79.1-.97.1-1.96.28-2.92.06-.32.53-.83.8-.82,2.79.07,5.57.21,8.35.38Zm13.96-43.67h-.18c-.07,1.44-.15,2.87-.19,4.31-.02.8-.27,1.23-1.18,1.16-1.02-.07-2.06-.05-3.09-.01-.78.03-.9-.28-.58-.91,1.53-2.96,3.05-5.92,4.59-8.88.08-.15.29-.23.44-.34.06.17.17.34.17.51.01,1.39,0,2.77,0,4.16Z"/>
  <path class="cls-1" d="m49.66,49.81c-.27-4.95-.45-9.9-.67-14.84-.29-6.39-.59-12.77-.87-19.16-.22-5-.42-10-.63-14.99-.01-.27-.1-.54-.15-.81-.16.25-.34.49-.46.76-.42.94-.78,1.91-1.21,2.84-1.18,2.51-2.91,4.37-5.82,4.77-.84.11-2.04-.13-2.44.33-.52.6-.42,1.75-.58,2.67-.09.56-.12,1.13-.25,1.68-.18.76.1.98.85,1.01,2.14.07,3.93-.68,5.47-2.11.17-.16.41-.26.62-.38,0,.27.11.6,0,.79-.71,1.12-1.46,2.22-2.21,3.31-.6.87-1.4,1.64-1.82,2.59-2.55,5.85-5.01,11.75-7.5,17.62-1.95,4.6-3.91,9.19-5.86,13.79-.62,1.46-.61,1.46,1.04,1.42,1.29-.03,2.58-.12,3.87-.09.74.01,1.09-.23,1.33-.95.4-1.22.99-2.38,1.42-3.59.23-.63.55-.88,1.24-.86,2.01.04,4.03.07,6.04,0,1.01-.04,1.22.37,1.19,1.27-.04,1.03.11,2.06.08,3.09-.02.81.25,1.08,1.08,1.05,1.7-.06,3.41-.08,5.11,0,1,.05,1.19-.25,1.14-1.21Zm-9.31-10.09c-.36,0-.72,0-1.08,0-3-.03-2.69.28-1.66-2.5.91-2.46,2.02-4.84,3.05-7.25.11-.26.33-.47.5-.71.12.3.32.6.34.91.14,2.68.26,5.35.37,8.03.06,1.5.05,1.5-1.52,1.52Z"/>
  <path class="cls-1" d="m111.6,25.7c-.05,0-.11,0-.16,0,0-6.05,0-12.09,0-18.14,0-2.22,0-4.44,0-6.67,0-.15-.04-.31-.06-.46-.13.12-.32.21-.39.36-.57,1.21-1.06,2.46-1.69,3.65-1.53,2.9-3.73,4.79-7.26,4.48-.58-.05-.82.07-.93.68-.23,1.32-.54,2.63-.85,3.93-.21.87.18,1.09.97,1.09,2.07,0,3.81-.76,5.29-2.18.14-.13.42-.12.63-.18-.01.19.04.42-.05.55-.77,1.14-1.56,2.27-2.37,3.38-.53.74-1.23,1.39-1.61,2.2-2.58,5.5-5.11,11.03-7.64,16.56-2.32,5.06-4.61,10.13-6.95,15.18-.4.85-.36,1.16.68,1.1,1.34-.07,2.69-.05,4.03,0,.71.03,1.11-.16,1.38-.88.46-1.25,1.01-2.48,1.62-3.67.2-.39.69-.86,1.07-.88,2.11-.09,4.24-.03,6.35-.07.8-.01.93.39.91,1.05-.03,1.08.03,2.17-.01,3.25-.03.73.07,1.14.99,1.11,1.55-.06,3.11-.05,4.65.08,1.23.1,1.43-.39,1.42-1.5-.04-8.01-.02-16.02-.02-24.02Zm-8.08,14.23c-1.24-.04-2.47-.06-3.71-.08.35-1.11.61-2.25,1.06-3.32.89-2.13,1.88-4.23,2.85-6.33.1-.23.37-.38.56-.56.06.24.17.47.18.71.02,1.44,0,2.89,0,4.33.02,0,.05,0,.07,0,0,1.39-.06,2.79.02,4.18.05.84-.27,1.11-1.04,1.08Z"/>
  <path class="cls-1" d="m95.62,72.33c-1.48.03-2.98.24-4.43.57-4.53,1.03-8.58,3.21-12.55,5.5-1.15.66-1.89.94-2.94-.25-1.23-1.39-3-1.82-4.83-1.31-.44.12-.84.68-1.07,1.13-.07.14.5.63.82.91.69.61,1.42,1.17,2.13,1.77.68.58.59,1.01-.17,1.52-1.84,1.23-3.67,2.49-5.41,3.86-.83.66-1.43.98-2.56.51-2.15-.88-4.53.45-5.07,2.7-.13.55.09,1.33.43,1.8.16.22,1.04.06,1.51-.13.56-.22,1.05-.65,1.55-1.01,1.55-1.12,1.86-1.11,2.46.72.64,1.95,1.04,3.98,1.55,5.97.65,2.54,1.12,5.15,2.03,7.59,1.02,2.74,2.98,3.12,5.4,1.43,1.53-1.07,2.57-2.53,3.35-4.17.67-1.42.97-3.16,1.98-4.24,1.03-1.1,2.8-1.47,4.14-2.33.8-.52,1.21-.41,1.79.23,3.21,3.54,4.93,7.68,5.18,12.44,0,.31.04.63,0,.93-.34,2.45-1.12,4.72-3.64,5.68-2.51.96-4.5-.28-6.21-2.03-1.48-1.51-2.45-3.3-2.87-5.38-.06-.32-.31-.6-.48-.9-.29.19-.69.32-.86.59-.87,1.38-1.44,2.82-.91,4.52.67,2.13,2.36,3.21,4.16,4.12,3.76,1.91,7.69,1.15,10.23-1.89,4.71-5.65,3.83-15.03-1.84-19.69-1.14-.94-1.15-.94-.02-1.93,3.55-3.11,6.89-6.41,9.12-10.63.67-1.26,1.2-2.63,1.58-4.01.73-2.68-.79-4.67-3.54-4.6Zm-18.96,27.25c-.53,1.53-1.25,3.03-2.13,4.38-.41.62-1.55,1.28-2.12,1.11-.58-.17-1.07-1.3-1.23-2.08-.36-1.76-.37-3.6-.74-5.36-.51-2.41-1.2-4.78-1.89-7.14-.18-.62-.62-1.19-1.01-1.72-1-1.37-1.06-1.41.33-2.47,1.68-1.28,3.43-2.46,5.15-3.7.6-.43,1.07-.33,1.31.37.87,2.58,1.74,5.15,2.53,7.75.07.24-.33.76-.63.94-1.01.6-2.15,1-3.1,1.69-1.01.74-1.87,1.76-1.43,3.15.48,1.52,1.88,1.57,3.18,1.68.2.02.41,0,.62,0,1.52-.09,1.67-.04,1.17,1.39Zm.57-4.13c-.18.64.31,1.73-1.03,1.61-1.19-.1-2.06-1.13-1.83-2.18.07-.34.18-.75.41-.98.61-.59,1.3-1.1,1.96-1.64.17.71.34,1.41.5,2.12.03.15,0,.31,0,.46h0c0,.21.05.42,0,.62Zm6.18-1.59c-.94.7-1.92,1.36-2.93,1.95-.15.09-.53-.21-.75-.3.16-.83.27-1.33.34-1.83.3-2.23.37-2.27,2.35-1.19.31.17.68.32.89.58.15.18.2.7.09.79Zm11-15.49c-.36.91-.77,2.68-1.69,4.11-1.89,2.94-4.05,5.71-6.09,8.55-.49.68-1.06.78-1.87.54-1.13-.32-2.31-.51-3.48-.66-.6-.07-.93-.17-.98-.87-.2-3.27-.93-6.41-2.51-9.33-.13-.24.08-.92.32-1.06,3.84-2.15,7.78-4.05,12.17-4.78.55-.09,1.14-.07,1.7-.03,1.67.13,2.49,1.06,2.43,3.52Z"/>
  <path class="cls-1" d="m118.19,100.2c-.12.1-.26.19-.36.31-.72.86-1.33,1.84-2.17,2.56-.85.71-1.95.65-2.9.05-.89-.56-1.05-1.48-.9-2.46.21-1.39.51-2.74,1.68-3.72.17-.14.22-.41.32-.63-.23-.1-.45-.29-.68-.29-.51.01-1.02.19-1.52.17-1.13-.03-1.39-.43-1.1-1.53.14-.55.32-1.11.33-1.66.03-1.14-.62-1.46-1.61-.86-1.24.75-1.64,2.55-.87,3.81.23.37.65.88.54,1.15-.61,1.51-1.3,3-2.09,4.42-.22.39-1.07.83-1.34.69-.44-.24-.87-.91-.9-1.42-.06-.85.19-1.72.33-2.57.18-1.15-.8-2.19-1.65-1.6-.96.67-.91.03-1.16-.5-.75-1.59-1.97-2.05-3.56-1.32-2.16.99-2.93,2.9-3.23,4.82-.02,2.83,1.9,4.2,4.11,3.12.67-.33,1.24-.9,1.81-1.41.41-.37.61-.68.89.15.82,2.37,3.12,2.85,4.8.98.67-.75,1.15-1.7,1.61-2.61.37-.73.57-1.54.88-2.31.46-1.17,1.34-.1,1.98-.35-.08.36-.12.74-.25,1.08-.6,1.57-1.42,3.09-1.79,4.71-.38,1.63.71,2.75,2.28,2.79,2.55.06,6.04-2.65,6.58-5.12.03-.14-.03-.29-.04-.44Zm-18.39,1.61c-1.13.46-2-.36-2.22-1.97.36-1,.66-2.02,1.09-2.98.34-.75.99-1.19,1.87-1.02.94.17,1.34.89,1.52,1.73.29,1.34-1.02,3.74-2.26,4.25Z"/>
</svg>