<?xml version="1.0" encoding="UTF-8"?>
<svg id="Capa_1" data-name="Capa 1" xmlns="http://www.w3.org/2000/svg" viewBox="0 0 28.47 52.17">
  <defs>
    <style>
      .cls-1 {
        fill: #484848;
      }
    </style>
  </defs>
  <path class="cls-1" d="m0,26.09C0,18.89,0,11.69,0,4.49,0,1.38,1.36,0,4.45,0,11,0,17.55,0,24.11,0c2.93,0,4.36,1.44,4.36,4.39,0,14.47,0,28.93,0,43.4,0,2.97-1.4,4.38-4.35,4.38-6.62,0-13.24,0-19.87,0-2.81,0-4.25-1.45-4.25-4.28,0-7.27,0-14.53,0-21.8Zm2.04-.11c0,5.77.01,11.54-.01,17.31,0,.72.14,1,.94,1,7.47-.03,14.93-.03,22.4,0,.68,0,.94-.14.94-.88-.02-11.54-.02-23.08,0-34.62,0-.74-.25-.89-.93-.89-7.47.02-14.93.03-22.4,0-.79,0-.95.26-.95.99.03,5.7.02,11.4.02,17.11Zm12.13,23.32c.85,0,1.69-.03,2.54,0,.83.04.62-.57.59-.97-.03-.41.35-1.11-.56-1.1-1.69,0-3.38,0-5.08,0-.29,0-.49.05-.57.41-.28,1.25.01,1.66,1.26,1.66.61,0,1.22,0,1.83,0ZM15.24,3.91c-.09-.62-.44-1.03-1.06-1-.61.03-1,.42-.96,1.07.03.59.38.93.98.94.65,0,.96-.39,1.05-1Z"/>
</svg>