<?xml version="1.0" encoding="UTF-8"?>
<svg id="Capa_1" data-name="Capa 1" xmlns="http://www.w3.org/2000/svg" viewBox="0 0 68.01 57.44">
  <defs>
    <style>
      .cls-1 {
        fill: #ffc8bb;
      }

      .cls-2 {
        fill: #f8f3f3;
      }

      .cls-3 {
        fill: #578b9f;
      }

      .cls-4 {
        fill: #d1d1d1;
      }

      .cls-5 {
        fill: #58899d;
      }

      .cls-6 {
        fill: #6c636c;
      }

      .cls-7 {
        fill: #a95a47;
      }

      .cls-8 {
        fill: #b0a09e;
      }

      .cls-9 {
        fill: #c8b5b3;
      }

      .cls-10 {
        fill: #703932;
      }

      .cls-11 {
        fill: #906d6a;
      }

      .cls-12 {
        fill: #7e5552;
      }

      .cls-13 {
        fill: #daad61;
      }

      .cls-14 {
        fill: #876664;
      }

      .cls-15 {
        fill: #e5c68e;
      }

      .cls-16 {
        fill: #84533b;
      }

      .cls-17 {
        fill: #82d9ff;
      }

      .cls-18 {
        fill: #52b8d9;
      }

      .cls-19 {
        fill: #ffeecf;
      }

      .cls-20 {
        fill: #f9dd9d;
      }

      .cls-21 {
        fill: #bd7463;
      }

      .cls-22 {
        fill: #6e707c;
      }

      .cls-23 {
        fill: #caf4ff;
      }

      .cls-24 {
        fill: #efc36a;
      }

      .cls-25 {
        fill: #5e595f;
      }

      .cls-26 {
        fill: #7e453d;
      }

      .cls-27 {
        fill: #94716f;
      }

      .cls-28 {
        fill: #78a3bc;
      }

      .cls-29 {
        fill: #db785a;
      }

      .cls-30 {
        fill: #5c636c;
      }

      .cls-31 {
        fill: #77a1b9;
      }

      .cls-32 {
        fill: #865947;
      }

      .cls-33 {
        fill: #f9a287;
      }
    </style>
  </defs>
  <path d="m57.9,0c.57.74.21,1.59.25,2.39.03.76.21,1.2,1.05,1.1.9-.11,1.1.35,1.12,1.17.02,1.34-.69,2.47-.92,3.74-.09.49-.74.71-1.17.63-1-.18-1.1.48-1.29,1.13-1.27,4.27-2.53,8.53-3.8,12.8-.04.12,0,.26,0,.39,1.46.69,3.01.15,4.51.29,2.66,0,5.32,0,7.98,0,.46.63.21,1.35.21,2.02,0,.8.17,1.31,1.1,1.2.84-.1,1.04.33,1.06,1.1.04,1.39-.67,2.58-.96,3.88-.11.49-.65.73-1.18.59-.89-.22-1.11.4-1.29,1.01-2.32,7.85-4.63,15.71-6.94,23.56-.05.15-.17.28-.25.43-2.65,0-5.31,0-7.96.01h-30.82c-2.65,0-5.31,0-7.96,0-1.1-1.05-1.08-2.57-1.49-3.88-1.71-5.53-3.27-11.11-4.89-16.68-.27-.95-.51-1.9-.82-2.84-.28-.88-.44-1.94-1.83-1.6-.4.1-.64-.16-.76-.56C.51,30.72-.02,29.63,0,28.37c.02-.95-.05-1.79,1.33-1.52.63.13.5-.41.55-.78.11-.8-.29-1.65.23-2.42,2.75,0,5.5,0,8.25,0,1.5-.14,3.04.4,4.51-.29-1.31-4.4-2.65-8.8-3.92-13.21-.21-.72-.4-1.2-1.26-1.1-.72.09-1.12-.32-1.29-1-.28-1.12-.86-2.16-.94-3.34-.06-.79.14-1.32,1.07-1.23.95.1,1.04-.44,1.09-1.21.05-.77-.49-1.71.5-2.28C12.77,0,15.42,0,18.07,0c10.62,0,21.25,0,31.87,0,2.65,0,5.31,0,7.96,0Zm.04,24.77q-.06,2.08,1.97,2.09c1.01,0,2.02.05,3.03-.02.61-.04,1.31.32,1.84-.27,0-.6.02-1.21.02-1.81-1.82-.64-3.69-.15-5.53-.28-.44-.03-.98-.21-1.33.29ZM12.21,3.47c11.99,0,23.98.02,35.97.02.33,0,.73.12.94-.29l-.02-1.81c-.29-.53-.79-.27-1.18-.27-11.49-.02-22.98-.02-34.46,0-.42,0-.89-.18-1.24.22-.67.16-1.7-.41-1.61,1.1.07,1.31.84,1.05,1.61,1.03ZM50.24,1.39c.04.63-.28,1.31.22,1.89,1.4.47,2.84.16,4.26.19.79.02,1.64.32,2.38-.25-.01-.61-.02-1.22-.03-1.82-1.81-.63-3.68-.15-5.52-.27-.43-.03-.97-.26-1.31.27ZM4.53,26.82c.09.01.18.03.26.03,17.03,0,34.06,0,51.09,0,.31,0,.73.19.92-.28l.02-1.79c-.44-.57-1.07-.29-1.6-.29-16.87-.02-33.75-.02-50.62,0-.47,0-.98-.15-1.4.21-.65,1.76-.36,2.21,1.34,2.14Zm54.93,3.75c-.48.74.04.8.57.8,1.32.01,2.64.05,3.96-.01.71-.03,1.49.32,2.13-.28,0-.99.82-1.83.52-2.88-.86-.66-1.85-.26-2.75-.24-1.36.02-2.76-.4-4.08.24.08.81-.22,1.57-.34,2.36Zm-43.24-7.11c.33.31.75.21,1.13.21,8.42,0,16.83,0,25.25,0,.42,0,.9.15,1.22-.28,1.4-4.76,2.8-9.52,4.2-14.28-.33-.56-.88-.29-1.31-.29-10.68-.02-21.37-.02-32.05,0-.46,0-.98-.18-1.39.22-.48.03-.96.05-1.45.08.51,1.73.96,3.44,1.51,5.11,1.01,3.06,1.65,6.24,2.89,9.23Zm-11.94,9c0,.18-.04.36,0,.53,2.18,7.37,4.4,14.73,6.52,22.12.35,1.22.95,1.37,1.95,1.19,11.72.01,23.44.03,35.17.04.24,0,.55.1.65-.27.84-1.95,1.28-4.02,1.9-6.04,1.78-5.83,3.52-11.67,5.28-17.51-.37-.6-.96-.33-1.44-.33-16.22-.02-32.45-.02-48.67,0-.46,0-.99-.2-1.35.28Zm47.51-9.08l4.25-14.3c-2.21-.47-4.43-.41-6.65-.03-1.34,3.26-2.08,6.72-3.13,10.07-.44,1.4-1.02,2.78-1.1,4.28,1.56.6,3.18.17,4.77.25.61.03,1.32.29,1.86-.28Zm4.99,32.68c2.32-7.86,4.64-15.73,6.95-23.59-1.76-.52-3.53-.39-5.3-.07-1.09-.1-1.65.2-1.96,1.45-.8,3.2-1.88,6.33-2.8,9.5-1.17,4.05-2.51,8.05-3.49,12.16-.48.67-.14.83.5.83,1.23,0,2.47.05,3.7-.02.8-.04,1.65.32,2.4-.26ZM1.9,31.08c.31.47.8.29,1.21.29,17.94,0,35.89,0,53.83,0,.41,0,.91.19,1.19-.32.13-.57.17-1.19.41-1.71.46-1,.02-1.22-.86-1.17-.34-.43-.82-.23-1.24-.23-17.7-.01-35.39-.01-53.09,0-.41,0-.89-.19-1.24.23-.87-.04-1.35.15-.86,1.16.27.56.43,1.17.64,1.76ZM29.9,4.55c-1.24,0-2.48,0-3.72,0-5.44,0-10.88,0-16.32.02-.36,0-.9-.33-1.08.37-.32,1.22.86,2.8,2.11,2.8,12.52,0,25.03-.03,37.55.04,1.45,0,2.14-.26,2.42-1.8.21-1.12.17-1.46-1.06-1.45-6.63.05-13.27.02-19.9.02Zm21.63,3.19c2.02,0,3.96.02,5.9-.01.36,0,.88.28,1.04-.44.19-.84.68-1.63.43-2.53-.06-.23-.37-.19-.59-.19-1.86,0-3.71,0-5.57,0-.38,0-.74.03-.68.55.11.89-.3,1.69-.54,2.64Z"/>
  <path class="cls-11" d="m10.36,23.66c-2.75,0-5.5,0-8.25,0,.72-.51,1.53-.21,2.3-.22,1.99-.04,3.98.01,5.97.03,0,.07-.01.13-.02.2Z"/>
  <path class="cls-11" d="m65.64,23.65c-2.66,0-5.32,0-7.98,0,0-.07-.01-.13-.02-.2,2.43-.01,4.87-.03,7.3-.04.26,0,.54-.05.71.24Z"/>
  <path class="cls-12" d="m57.63,23.46c0,.07.01.13.02.2-1.5-.14-3.04.4-4.51-.29,1.5.03,2.99.06,4.49.09Z"/>
  <path class="cls-12" d="m10.36,23.66c0-.07.01-.13.02-.2,1.5-.03,2.99-.06,4.49-.09-1.46.69-3.01.15-4.51.29Z"/>
  <path class="cls-20" d="m55.75,32.52c-1.76,5.84-3.5,11.68-5.28,17.51-.62,2.02-1.06,4.09-1.9,6.04-11.92,0-23.85.01-35.77.02-.09-.47-.15-.95-.29-1.41-1.08-3.71-2.15-7.42-3.25-11.12-1.11-3.7-2.26-7.39-3.39-11.08.22-.01.44-.03.66-.03,16.01,0,32.02,0,48.04,0,.4,0,.79.05,1.19.07Z"/>
  <path class="cls-33" d="m48.03,9.11c-1.4,4.76-2.8,9.52-4.2,14.28-8.67,0-17.35-.01-26.02-.02-1.42-4.76-2.83-9.52-4.25-14.28,11.49,0,22.98.01,34.47.02Z"/>
  <path class="cls-2" d="m57.67,28.16c.88-.05,1.32.17.86,1.17-.24.52-.28,1.14-.41,1.71-3.71.02-7.42.06-11.14.06-15.03,0-30.06-.02-45.09-.03-.21-.59-.36-1.2-.64-1.76-.5-1,0-1.2.86-1.16,4.2,0,8.4.03,12.6.02,14.32,0,28.64-.02,42.96-.02Z"/>
  <path class="cls-24" d="m63.74,32.47c-2.32,7.86-4.64,15.73-6.95,23.59-1.82,0-3.65.01-5.47,0-.45,0-1.01.14-1.12-.56.97-4.11,2.31-8.11,3.49-12.16.92-3.17,2-6.3,2.8-9.5.31-1.25.87-1.55,1.96-1.45,1.77.02,3.53.05,5.3.07Z"/>
  <path class="cls-2" d="m29.9,4.55c6.63,0,13.27.02,19.9-.02,1.23,0,1.27.33,1.06,1.45-.28,1.53-.98,1.8-2.42,1.8-12.52-.07-25.03-.04-37.55-.04-1.25,0-2.43-1.58-2.11-2.8.18-.69.72-.37,1.08-.37,5.44-.02,10.88-.02,16.32-.02,1.24,0,2.48,0,3.72,0Z"/>
  <path class="cls-29" d="m56.04,9.08c-1.42,4.77-2.83,9.53-4.25,14.3-2.21,0-4.42.02-6.63.02.07-1.5.66-2.88,1.1-4.28,1.05-3.36,1.79-6.81,3.13-10.07,2.22.01,4.43.02,6.65.03Z"/>
  <path class="cls-17" d="m56.82,24.78c0,.6-.01,1.2-.02,1.79-17.33,0-34.67,0-52,0,0-.6,0-1.19,0-1.79.53-.01,1.06-.04,1.59-.04,13.58,0,27.16,0,40.74,0,3.23,0,6.46.03,9.69.04Z"/>
  <path class="cls-17" d="m49.1,1.39c0,.6.01,1.2.02,1.81-3.18.01-6.37.03-9.55.03-9.02,0-18.05-.03-27.07-.04,0-.6,0-1.19,0-1.79,12.2,0,24.4,0,36.61,0Z"/>
  <path class="cls-19" d="m5.86,32.48c1.13,3.69,2.28,7.38,3.39,11.08,1.11,3.7,2.18,7.41,3.25,11.12.13.46.19.94.29,1.41-.02.07-.03.14-.04.21-1.01.19-1.61.03-1.95-1.19-2.11-7.39-4.34-14.75-6.52-22.12-.05-.16,0-.35,0-.53.53,0,1.06,0,1.59.01Z"/>
  <path class="cls-1" d="m13.55,9.09c1.42,4.76,2.83,9.52,4.25,14.28-.53.03-1.05.06-1.58.09-1.23-2.99-1.88-6.17-2.89-9.23-.55-1.67-1-3.38-1.51-5.11.49-.03.97-.05,1.45-.08.09.02.18.04.28.06Z"/>
  <path class="cls-4" d="m51.54,7.74c.24-.95.65-1.74.54-2.64-.06-.52.29-.55.68-.55,1.86,0,3.71,0,5.57,0,.22,0,.52-.04.59.19.25.9-.24,1.69-.43,2.53-.17.72-.68.44-1.04.44-1.94.03-3.88.01-5.9.01Z"/>
  <path class="cls-4" d="m66.64,28.21c.31,1.04-.51,1.89-.52,2.88-1.89,0-3.78.02-5.68.02-.41,0-.93.15-.98-.53.12-.79.42-1.55.34-2.36,2.28,0,4.55,0,6.83,0Z"/>
  <path class="cls-27" d="m1.9,31.08c15.03,0,30.06.02,45.09.03,3.71,0,7.42-.04,11.14-.06-.28.52-.78.32-1.19.32-17.94,0-35.89,0-53.83,0-.41,0-.9.19-1.21-.29Z"/>
  <path class="cls-9" d="m57.67,28.16c-14.32,0-28.64.02-42.96.02-4.2,0-8.4-.02-12.6-.02.35-.42.82-.23,1.24-.23,17.7-.01,35.39-.01,53.09,0,.41,0,.89-.2,1.24.23Z"/>
  <path class="cls-6" d="m56.82,24.78c-3.23-.01-6.46-.04-9.69-.04-13.58,0-27.16,0-40.74,0-.53,0-1.06.03-1.59.04-.54-.03-1.07-.06-1.61-.1.42-.36.93-.21,1.4-.21,16.87,0,33.75,0,50.62,0,.53,0,1.16-.27,1.6.29Z"/>
  <path class="cls-28" d="m4.8,26.57c17.33,0,34.67,0,52,0-.19.47-.6.28-.92.28-17.03,0-34.06,0-51.09,0-.09,0-.18-.02-.26-.03.09-.08.18-.17.27-.25Z"/>
  <path class="cls-32" d="m5.86,32.48c-.53,0-1.06,0-1.59-.01.37-.48.9-.28,1.35-.28,16.22,0,32.45,0,48.67,0,.48,0,1.08-.27,1.44.33-.4-.03-.79-.07-1.19-.07-16.01,0-32.02,0-48.04,0-.22,0-.44.02-.66.03Z"/>
  <path class="cls-18" d="m50.46,3.28c-.5-.58-.17-1.26-.22-1.89,2.28,0,4.55,0,6.83,0,.01.61.02,1.22.03,1.82-2.21.02-4.43.04-6.64.07Z"/>
  <path class="cls-18" d="m64.8,24.77c0,.6-.02,1.21-.02,1.81-1.63,0-3.25.02-4.88.02-1.75,0-1.75,0-1.7-1.82,2.2,0,4.4,0,6.6-.01Z"/>
  <path class="cls-31" d="m49.1,1.39c-12.2,0-24.4,0-36.61,0-.1-.02-.19-.04-.29-.06.35-.4.83-.22,1.24-.22,11.49-.01,22.98-.01,34.46,0,.39,0,.89-.25,1.18.27Z"/>
  <path class="cls-22" d="m12.5,3.19c9.02.01,18.05.03,27.07.04,3.18,0,6.37-.02,9.55-.03-.22.41-.61.29-.94.29-11.99,0-23.98-.01-35.97-.02.1-.09.2-.19.29-.28Z"/>
  <path class="cls-15" d="m12.75,56.3c0-.07.02-.14.04-.21,11.92,0,23.85-.01,35.77-.02-.1.36-.41.27-.65.27-11.72,0-23.44-.02-35.17-.04Z"/>
  <path class="cls-21" d="m13.55,9.09c-.09-.02-.18-.04-.28-.06.41-.4.92-.22,1.39-.22,10.68-.01,21.37-.01,32.05,0,.44,0,.98-.27,1.31.29-11.49,0-22.98-.01-34.47-.02Z"/>
  <path class="cls-26" d="m16.22,23.46c.53-.03,1.05-.06,1.58-.09,8.67,0,17.35.01,26.02.02-.33.44-.8.28-1.22.28-8.42,0-16.83,0-25.25,0-.39,0-.8.1-1.13-.21Z"/>
  <path class="cls-23" d="m4.8,26.57c-.09.08-.18.17-.27.25-1.7.07-1.98-.38-1.33-2.14.54.03,1.07.06,1.61.1,0,.6,0,1.19,0,1.79Z"/>
  <path class="cls-23" d="m12.5,3.19c-.1.09-.2.19-.29.28-.76.02-1.53.28-1.61-1.03-.09-1.51.95-.94,1.62-1.1.1.02.19.04.29.06,0,.6,0,1.19,0,1.79Z"/>
  <path class="cls-5" d="m58.2,24.78c-.05,1.81-.05,1.82,1.7,1.82,1.63,0,3.25-.01,4.88-.02-.54.59-1.23.23-1.84.27-1.01.06-2.02.02-3.03.02q-2.03,0-1.97-2.09s.13-.01.13-.01h.13Z"/>
  <path class="cls-14" d="m59.46,30.57c.05.69.57.53.98.53,1.89,0,3.78-.01,5.68-.02-.64.59-1.42.24-2.13.28-1.32.06-2.64.02-3.96.01-.53,0-1.05-.06-.57-.8Z"/>
  <path class="cls-13" d="m50.19,55.51c.12.7.67.56,1.12.56,1.82,0,3.65,0,5.47,0-.74.58-1.6.22-2.4.26-1.23.07-2.47.02-3.7.02-.63,0-.98-.16-.5-.83Z"/>
  <path class="cls-25" d="m58.2,24.78h-.13s-.13,0-.13,0c.35-.5.89-.32,1.33-.29,1.84.13,3.72-.36,5.53.28-2.2,0-4.4,0-6.6.01Z"/>
  <path class="cls-8" d="m66.64,28.21c-2.28,0-4.55,0-6.83,0,1.32-.65,2.72-.22,4.08-.24.9-.01,1.89-.42,2.75.24Z"/>
  <path class="cls-3" d="m57.07,1.39c-2.28,0-4.55,0-6.83,0,.34-.53.88-.3,1.31-.27,1.84.12,3.71-.37,5.52.27Z"/>
  <path class="cls-10" d="m45.16,23.4c2.21,0,4.42-.02,6.63-.02-.55.56-1.25.31-1.86.28-1.59-.08-3.21.35-4.77-.25Z"/>
  <path class="cls-7" d="m56.04,9.08c-2.22-.01-4.43-.02-6.65-.03,2.22-.37,4.44-.43,6.65.03Z"/>
  <path class="cls-30" d="m50.46,3.28c2.21-.02,4.43-.04,6.64-.07-.74.57-1.6.27-2.38.25-1.42-.03-2.86.28-4.26-.19Z"/>
  <path class="cls-16" d="m63.74,32.47c-1.77-.02-3.53-.05-5.3-.07,1.77-.32,3.54-.45,5.3.07Z"/>
</svg>